<?xml version="1.0" encoding="UTF-8"?>
<svg xmlns="http://www.w3.org/2000/svg" xmlns:xlink="http://www.w3.org/1999/xlink" width="190px" height="98px" viewBox="0 0 190 98" version="1.1">
<g id="surface1">
<path style=" stroke:none;fill-rule:nonzero;fill:rgb(90.980392%,0%,50.196078%);fill-opacity:1;" d="M 34.191406 10.933594 L 34.414062 10.933594 C 34.785156 10.933594 35.109375 11.046875 35.378906 11.277344 L 35.378906 11.390625 C 35.378906 11.902344 35.109375 12.578125 34.5625 13.421875 C 34.117188 14.363281 32.992188 16.203125 31.1875 18.933594 C 29.234375 22.121094 27.117188 26.921875 24.839844 33.328125 C 23.949219 36.441406 23.503906 38.148438 23.503906 38.457031 L 23.503906 38.992188 L 23.542969 38.992188 L 28.441406 31.871094 C 30.617188 29.089844 33.226562 25.988281 36.269531 22.570312 C 38.820312 20.09375 40.265625 18.792969 40.613281 18.664062 C 43.210938 16.75 45.203125 15.792969 46.585938 15.792969 C 47.355469 15.792969 47.738281 16.1875 47.738281 16.980469 C 47.738281 17.234375 47.390625 18.292969 46.699219 20.15625 C 45.238281 24.011719 44.175781 27.097656 43.507812 29.421875 C 42.640625 32.839844 42.011719 35.675781 41.613281 37.921875 C 41.464844 38.507812 41.390625 38.902344 41.390625 39.105469 L 41.390625 39.453125 C 42.777344 37.589844 43.914062 36.132812 44.804688 35.085938 C 46.910156 32.5625 48.355469 30.875 49.148438 30.035156 C 51.324219 27.710938 53.539062 25.542969 55.789062 23.527344 C 58.164062 21.410156 60.515625 19.558594 62.839844 17.976562 C 65.363281 16.34375 67.492188 15.117188 69.222656 14.300781 C 73.601562 12.183594 76.78125 11.125 78.761719 11.125 C 79.453125 11.125 79.910156 11.277344 80.132812 11.582031 C 80.257812 11.710938 80.320312 11.839844 80.320312 11.964844 L 80.320312 12.15625 C 80.320312 12.71875 79.628906 13.597656 78.242188 14.796875 C 77.078125 15.945312 75.65625 17.441406 73.972656 19.277344 C 71.871094 21.445312 69.507812 24.113281 66.886719 27.277344 C 65.699219 28.605469 64.152344 30.558594 62.246094 33.136719 C 59.253906 37.015625 56.667969 40.703125 54.492188 44.199219 C 51.398438 48.996094 48.515625 53.933594 45.84375 59.011719 C 44.730469 61.488281 43.941406 63.621094 43.46875 65.40625 L 43.433594 65.675781 L 43.507812 65.675781 C 45.90625 63.429688 47.875 61.71875 49.40625 60.542969 C 53.367188 57.6875 56.59375 55.605469 59.09375 54.304688 C 60.851562 53.460938 62.335938 53.042969 63.546875 53.042969 C 64.140625 53.066406 64.4375 53.183594 64.4375 53.386719 C 64.4375 53.617188 63.792969 54.191406 62.507812 55.109375 C 57.3125 58.503906 53.8125 60.851562 52.003906 62.152344 C 50.472656 63.273438 48.738281 64.679688 46.808594 66.363281 C 43.765625 69.296875 41.8125 71.378906 40.945312 72.601562 C 38.746094 75.359375 36.914062 77.910156 35.453125 80.257812 C 34.835938 81.40625 34.132812 81.980469 33.339844 81.980469 L 33.152344 81.980469 C 32.1875 81.980469 31.222656 80.566406 30.257812 77.734375 C 28.875 73.265625 28.179688 67.015625 28.179688 58.976562 L 28.292969 53.730469 C 28.292969 53.550781 28.253906 53.460938 28.179688 53.460938 C 25.039062 56.320312 23.222656 58.054688 22.726562 58.667969 C 19.957031 61.757812 17.9375 64.257812 16.675781 66.171875 C 13.113281 71.351562 10.085938 76.136719 7.585938 80.527344 C 7.140625 81.265625 6.671875 81.636719 6.175781 81.636719 L 6.0625 81.636719 C 5.125 81.636719 4.320312 79.25 3.652344 74.480469 C 3.480469 72.769531 3.390625 71.007812 3.390625 69.195312 C 3.390625 62.816406 4.457031 55.707031 6.582031 47.875 C 7.648438 44.273438 8.910156 40.867188 10.367188 37.652344 C 12.398438 33.085938 14.996094 28.554688 18.160156 24.0625 C 19.25 22.582031 20.808594 20.746094 22.835938 18.550781 C 25.3125 16.175781 26.945312 14.746094 27.734375 14.261719 C 30.753906 12.042969 32.90625 10.933594 34.191406 10.933594 "/>
<path style=" stroke:none;fill-rule:nonzero;fill:rgb(90.980392%,0%,50.196078%);fill-opacity:1;" d="M 93.160156 23.449219 L 93.234375 23.449219 L 93.34375 23.566406 L 91.304688 26.246094 C 90.734375 27.035156 90.449219 27.660156 90.449219 28.121094 L 90.449219 28.351562 C 90.449219 28.988281 91.253906 29.394531 92.863281 29.574219 C 94.742188 29.984375 99.789062 30.367188 108.003906 30.722656 L 109.820312 30.683594 L 109.894531 30.683594 C 111.109375 30.710938 111.714844 30.789062 111.714844 30.914062 L 111.714844 30.992188 L 111.675781 30.992188 L 111.675781 31.03125 L 108.078125 31.066406 L 106.628906 31.066406 C 100.371094 31.246094 96.574219 31.476562 95.238281 31.757812 C 92.8125 32.089844 90.894531 32.445312 89.484375 32.828125 C 86.988281 33.59375 85.167969 34.347656 84.03125 35.085938 C 83.117188 35.519531 81.679688 36.59375 79.726562 38.304688 C 78.613281 39.476562 77.847656 40.21875 77.425781 40.523438 L 77.277344 40.5625 L 77.238281 40.5625 L 77.164062 40.484375 C 77.164062 40.304688 77.710938 39.605469 78.796875 38.378906 C 79.292969 37.742188 79.6875 36.824219 79.984375 35.625 L 80.023438 35.125 L 80.023438 34.972656 C 80.023438 33.796875 79.183594 32.980469 77.5 32.523438 C 76.335938 32.320312 75.234375 32.214844 74.195312 32.214844 C 73.628906 32.214844 72.625 32.265625 71.191406 32.371094 L 71.152344 32.332031 L 71.152344 32.253906 C 71.152344 32.152344 71.910156 32.023438 73.417969 31.871094 C 75.992188 31.488281 78.128906 31.042969 79.835938 30.53125 C 81.964844 29.945312 84.042969 29.203125 86.070312 28.3125 C 87.605469 27.648438 89.113281 26.769531 90.597656 25.671875 C 92.183594 24.242188 93 23.527344 93.046875 23.527344 L 93.160156 23.449219 M 75.085938 42.820312 C 76.003906 42.898438 76.460938 43.265625 76.460938 43.929688 C 76.460938 44.570312 75.519531 46.046875 73.640625 48.371094 C 69.953125 53.015625 67.160156 56.871094 65.253906 59.933594 C 63.867188 62.253906 62.890625 64.320312 62.320312 66.132812 C 64.84375 64.476562 66.503906 63.351562 67.292969 62.765625 C 71.773438 59.117188 74.976562 56.5625 76.90625 55.109375 C 77.277344 54.851562 78.179688 54.101562 79.613281 52.851562 C 81 51.804688 81.902344 51.28125 82.324219 51.28125 C 82.570312 51.332031 82.695312 51.445312 82.695312 51.625 C 82.695312 52.363281 81.753906 53.691406 79.875 55.605469 C 78.960938 56.601562 75.53125 59.816406 69.59375 65.253906 C 65.957031 68.519531 63.433594 70.867188 62.023438 72.296875 C 58.414062 75.714844 56.261719 77.667969 55.566406 78.152344 C 52.574219 80.605469 50.695312 81.90625 49.925781 82.058594 L 49.890625 82.058594 C 49.421875 81.625 49.183594 80.847656 49.183594 79.722656 C 49.183594 76.789062 50.804688 71.734375 54.046875 64.5625 C 55.777344 60.941406 58.066406 57.097656 60.910156 53.042969 C 61.875 51.613281 63.199219 50.015625 64.882812 48.257812 C 66.242188 47.003906 67.46875 46.0625 68.554688 45.421875 C 70.015625 44.554688 71.316406 43.90625 72.453125 43.472656 C 73.789062 43.039062 74.667969 42.820312 75.085938 42.820312 "/>
<path style=" stroke:none;fill-rule:nonzero;fill:rgb(90.980392%,0%,50.196078%);fill-opacity:1;" d="M 96.945312 42.285156 C 97.984375 42.285156 98.664062 42.515625 98.984375 42.972656 L 99.058594 43.242188 C 99.058594 43.648438 97.738281 45.820312 95.089844 49.75 C 94.074219 51.332031 93.011719 53.335938 91.898438 55.757812 L 91.933594 55.757812 C 96.117188 52.875 99.121094 50.921875 100.953125 49.902344 C 108.621094 45.105469 113.855469 42.707031 116.648438 42.707031 L 117.019531 42.707031 C 118.109375 42.707031 118.863281 43.164062 119.285156 44.082031 C 119.382812 44.441406 119.433594 44.746094 119.433594 45.003906 C 119.433594 46.890625 118.023438 49.660156 115.203125 53.308594 C 109.933594 60.457031 107.296875 64.09375 107.296875 64.21875 C 106.703125 65.164062 106.40625 65.726562 106.40625 65.902344 L 106.292969 66.058594 C 117.039062 59.492188 131.621094 52.117188 135.867188 51.945312 C 136.152344 52.203125 136.507812 52.792969 136.558594 52.945312 C 135.324219 52.652344 123.773438 58.765625 115.535156 64.527344 L 101.175781 74.785156 C 94.101562 79.507812 89.894531 81.867188 88.558594 81.867188 L 88.371094 81.867188 C 87.703125 81.867188 87.308594 81.179688 87.183594 79.800781 L 87.183594 79.265625 C 87.183594 76.890625 88.570312 73.023438 91.339844 67.664062 C 94.160156 63.378906 96.957031 59.574219 99.726562 56.257812 L 99.691406 56.257812 C 95.78125 58.757812 92.269531 61.132812 89.152344 63.378906 C 86.703125 65.292969 84.539062 67.179688 82.65625 69.042969 C 79.019531 72.566406 75.496094 76.164062 72.082031 79.839844 C 70.796875 81.089844 69.757812 81.714844 68.964844 81.714844 L 68.851562 81.714844 C 68.085938 81.714844 67.578125 81.191406 67.332031 80.144531 L 67.257812 79.265625 L 67.257812 78.765625 C 67.257812 75.804688 68.804688 71.035156 71.894531 64.449219 C 73.800781 60.648438 75.929688 57.238281 78.277344 54.226562 C 79.589844 52.59375 81.234375 50.847656 83.214844 48.984375 C 85.441406 47.070312 87.050781 45.871094 88.039062 45.386719 C 91.503906 43.316406 94.472656 42.285156 96.945312 42.285156 "/>
<path style=" stroke:none;fill-rule:nonzero;fill:rgb(90.980392%,0%,50.196078%);fill-opacity:1;" d="M 182.269531 5.984375 C 184.050781 5.984375 185.757812 7.746094 187.390625 11.269531 C 187.910156 12.875 188.171875 14.523438 188.171875 16.207031 L 188.171875 16.894531 C 188.171875 19.957031 187.28125 23.441406 185.5 27.347656 C 184.757812 28.722656 183.828125 30.21875 182.714844 31.824219 C 181.601562 33.433594 180.042969 35.347656 178.039062 37.566406 C 176.332031 39.328125 175.070312 40.515625 174.253906 41.128906 C 172.621094 42.429688 170.839844 43.730469 168.910156 45.03125 C 165.050781 47.480469 161.007812 49.433594 156.777344 50.890625 C 154.847656 51.578125 152.25 52.265625 148.984375 52.957031 C 146.3125 53.414062 144.417969 53.644531 143.304688 53.644531 C 144.714844 55.710938 147.015625 58.46875 150.207031 61.914062 C 152.878906 64.59375 154.808594 66.429688 155.996094 67.425781 C 158.890625 69.800781 161.007812 71.332031 162.34375 72.019531 C 165.015625 73.476562 166.90625 74.585938 168.019531 75.351562 C 169.355469 76.191406 170.617188 77.148438 171.804688 78.222656 C 173.066406 79.445312 173.699219 80.632812 173.699219 81.78125 C 173.699219 84.078125 171.769531 85.6875 167.910156 86.605469 C 166.648438 86.835938 165.386719 86.949219 164.125 86.949219 C 158.78125 86.949219 153.621094 85.074219 148.648438 81.324219 C 145.160156 78.488281 142.710938 75.007812 141.300781 70.871094 C 140.78125 69.492188 140.226562 67.351562 139.632812 64.441406 C 139.410156 63.214844 139.1875 61.339844 138.964844 58.8125 C 138.890625 57.433594 138.777344 56.667969 138.628906 56.515625 C 138.183594 56.667969 137.738281 57.050781 137.292969 57.664062 L 135.957031 60.078125 C 134.769531 61.992188 133.507812 64.898438 132.171875 68.804688 C 131.652344 70.105469 131.132812 71.714844 130.613281 73.628906 C 129.648438 78.144531 128.757812 80.941406 127.941406 82.011719 C 126.53125 84.15625 124.492188 85.726562 121.820312 86.71875 C 120.78125 87.027344 119.851562 87.179688 119.035156 87.179688 C 117.253906 87.179688 115.511719 86.605469 113.804688 85.457031 C 112.097656 84.15625 111.242188 82.394531 111.242188 80.175781 L 111.242188 79.714844 C 111.242188 74.433594 115.882812 67.925781 125.160156 60.191406 C 128.574219 57.359375 131.726562 55.101562 134.621094 53.414062 L 136.070312 52.613281 C 134.363281 50.773438 133.0625 49.167969 132.171875 47.789062 C 130.390625 45.339844 129.128906 43.269531 128.386719 41.585938 C 127.496094 39.75 126.644531 36.953125 125.828125 33.203125 C 125.382812 31.058594 125.160156 29.105469 125.160156 27.347656 L 125.160156 26.886719 C 125.160156 22.371094 126.679688 18.003906 129.722656 13.792969 C 130.390625 12.722656 131.46875 11.34375 132.953125 9.660156 C 135.253906 7.441406 137.292969 6.328125 139.074219 6.328125 C 140.335938 6.328125 141.375 6.789062 142.191406 7.707031 C 142.785156 8.703125 143.082031 9.738281 143.082031 10.808594 L 143.082031 11.726562 C 143.082031 14.101562 142.75 16.972656 142.082031 20.339844 C 141.488281 23.632812 141.191406 28.339844 141.191406 34.464844 C 141.191406 39.058594 141.449219 43.960938 141.96875 49.167969 C 144.046875 47.636719 147.164062 44.917969 151.320312 41.011719 C 155.179688 37.183594 158.519531 33.664062 161.339844 30.445312 C 166.164062 25.085938 170.0625 20.492188 173.03125 16.664062 C 174.738281 14.675781 176.148438 12.875 177.261719 11.269531 C 178.449219 9.429688 179.488281 7.976562 180.378906 6.902344 C 180.972656 6.292969 181.601562 5.984375 182.269531 5.984375 M 131.503906 33.433594 C 131.503906 36.34375 131.949219 39.097656 132.839844 41.703125 C 133.359375 43.234375 134.546875 45.300781 136.402344 47.902344 L 137.515625 49.394531 L 137.292969 32.167969 L 137.40625 31.136719 C 137.40625 29.757812 136.699219 28.800781 135.289062 28.265625 C 134.992188 28.265625 134.769531 28.265625 134.621094 28.265625 C 133.285156 28.265625 132.359375 29.03125 131.839844 30.5625 C 131.617188 31.480469 131.503906 32.4375 131.503906 33.433594 M 145.53125 50.429688 L 145.644531 50.429688 C 147.128906 50.429688 150.503906 49.320312 155.773438 47.097656 C 159.1875 45.566406 162.195312 43.921875 164.792969 42.160156 C 166.054688 41.242188 167.242188 40.285156 168.355469 39.289062 C 170.136719 37.605469 171.027344 36.035156 171.027344 34.582031 L 171.027344 34.238281 C 171.027344 33.242188 170.691406 32.476562 170.023438 31.941406 C 169.652344 31.710938 169.246094 31.59375 168.800781 31.59375 C 166.871094 31.59375 164.273438 33.433594 161.007812 37.109375 C 158.335938 39.863281 156.257812 41.894531 154.773438 43.195312 L 152.65625 45.03125 C 149.910156 47.253906 147.535156 49.050781 145.53125 50.429688 M 141.636719 57.78125 L 141.636719 57.894531 C 141.636719 59.578125 142.042969 61.914062 142.859375 64.898438 C 143.304688 66.355469 143.863281 67.808594 144.53125 69.265625 C 147.5 75.234375 150.578125 78.222656 153.769531 78.222656 C 155.03125 78.222656 155.886719 77.761719 156.332031 76.84375 C 156.480469 76.539062 156.554688 76.230469 156.554688 75.925781 C 156.554688 74.46875 155.847656 73.128906 154.4375 71.90625 C 153.027344 70.910156 151.65625 69.761719 150.320312 68.460938 C 148.019531 66.316406 146.570312 64.863281 145.976562 64.097656 C 143.675781 61.261719 142.230469 59.15625 141.636719 57.78125 M 119.816406 73.742188 L 119.816406 73.859375 C 119.816406 75.007812 120.519531 75.847656 121.929688 76.382812 L 122.488281 76.5 C 123.824219 76.5 124.9375 75.160156 125.828125 72.480469 C 127.609375 67.886719 129.277344 64.132812 130.835938 61.226562 C 131.355469 60.230469 132.097656 59.121094 133.0625 57.894531 C 131.28125 59.195312 129.242188 60.804688 126.941406 62.71875 C 125.679688 63.789062 124.566406 64.9375 123.601562 66.164062 C 121.820312 68.308594 120.816406 69.683594 120.59375 70.296875 C 120.074219 71.753906 119.816406 72.902344 119.816406 73.742188 "/>
</g>
</svg>
